<?xml version="1.0" encoding="utf-8"?>
<!-- Generator: Adobe Illustrator 16.0.0, SVG Export Plug-In . SVG Version: 6.00 Build 0)  -->
<!DOCTYPE svg PUBLIC "-//W3C//DTD SVG 1.1//EN" "http://www.w3.org/Graphics/SVG/1.1/DTD/svg11.dtd">
<svg version="1.1" id="Layer_1" xmlns="http://www.w3.org/2000/svg" xmlns:xlink="http://www.w3.org/1999/xlink" x="0px" y="0px"
	 width="400px" height="200px" viewBox="106 296 400 200" enable-background="new 106 296 400 200" xml:space="preserve">
<title>ethereum-eth-logo-full-horizontal</title>
<g id="Layer_2">
	<g id="Layer_1-2">
		<path fill="#FFFFFF" d="M220.452,403.464c-0.012,0.717-0.601,1.289-1.317,1.281h-24.259c0.622,6.001,5.122,11.489,11.489,11.489
			c4.354,0,7.574-1.646,9.988-5.123c0.229-0.37,0.627-0.604,1.062-0.621c0.648-0.02,1.189,0.491,1.208,1.141
			c0,0.021,0,0.044,0,0.066c0,0.221-0.063,0.437-0.184,0.622c-2.451,4.244-7.317,6.33-12.074,6.33
			c-8.16,0-14.015-7.318-14.015-15.111c0-7.794,5.818-15.112,14.015-15.112S220.415,395.671,220.452,403.464L220.452,403.464z
			 M217.854,402.33c-0.513-6.001-5.123-11.489-11.489-11.489c-6.367,0-10.867,5.488-11.489,11.489H217.854z"/>
		<path fill="#FFFFFF" d="M249.943,389.012c0.659,0.019,1.188,0.549,1.208,1.207c0.019,0.648-0.492,1.189-1.141,1.208
			c-0.022,0-0.045,0-0.067,0h-6.513v25.576c-0.006,0.664-0.543,1.201-1.207,1.207c-0.659-0.019-1.188-0.549-1.208-1.207v-25.576
			h-6.257c-0.648,0.019-1.188-0.492-1.208-1.141c0-0.022,0-0.045,0-0.067c0.007-0.664,0.544-1.201,1.208-1.207h6.257v-9.331
			c0.001-0.639,0.467-1.182,1.098-1.28c0.655-0.087,1.257,0.373,1.344,1.028c0.008,0.06,0.012,0.119,0.011,0.179v9.404H249.943z"/>
		<path fill="#FFFFFF" d="M289.644,401.379v15.478c-0.019,0.659-0.548,1.188-1.207,1.207c-0.648,0.019-1.189-0.492-1.207-1.141
			c-0.001-0.021-0.001-0.044,0-0.066v-15.478c0-5.232-2.964-10.428-8.782-10.428c-7.464,0-10.685,6.513-10.245,13.208
			c0,0.184,0.073,0.952,0.073,1.062v11.599c-0.001,0.639-0.467,1.182-1.098,1.281c-0.655,0.087-1.257-0.374-1.344-1.028
			c-0.008-0.06-0.011-0.119-0.011-0.18v-50.896c0.007-0.664,0.544-1.201,1.208-1.207c0.659,0.019,1.188,0.549,1.208,1.207v28.76
			c2.085-3.731,5.817-6.257,10.172-6.257C285.582,388.499,289.644,394.756,289.644,401.379z"/>
		<path fill="#FFFFFF" d="M333.223,403.464c-0.012,0.717-0.601,1.289-1.316,1.281h-24.26c0.622,6.001,5.123,11.489,11.489,11.489
			c4.354,0,7.574-1.646,9.989-5.123c0.229-0.37,0.626-0.604,1.062-0.621c0.648-0.02,1.188,0.491,1.207,1.141
			c0.001,0.021,0.001,0.044,0,0.066c0.001,0.221-0.063,0.437-0.184,0.622c-2.45,4.244-7.317,6.33-12.074,6.33
			c-8.159,0-14.014-7.318-14.014-15.111c0-7.794,5.817-15.112,14.014-15.112C327.259,388.426,333.187,395.671,333.223,403.464z
			 M330.589,402.33c-0.513-6.001-5.123-11.489-11.489-11.489c-6.367,0-10.867,5.488-11.49,11.489H330.589z"/>
		<path fill="#FFFFFF" d="M363.044,390.146c0.048,0.677-0.458,1.265-1.134,1.317c-7.135,1.062-10.355,6.879-10.355,13.648v11.599
			c-0.001,0.639-0.467,1.182-1.098,1.28c-0.655,0.088-1.257-0.373-1.344-1.028c-0.008-0.059-0.011-0.119-0.011-0.179v-26.454
			c0.002-0.639,0.468-1.182,1.099-1.281c0.654-0.087,1.256,0.374,1.344,1.028c0.008,0.06,0.011,0.119,0.01,0.18v5.379
			c2.013-3.403,6.001-6.623,10.172-6.623C362.349,389.012,363.044,389.45,363.044,390.146z"/>
		<path fill="#FFFFFF" d="M402.928,403.464c-0.013,0.717-0.602,1.289-1.317,1.281h-24.26c0.622,6.001,5.123,11.489,11.489,11.489
			c4.354,0,7.574-1.646,9.989-5.123c0.229-0.37,0.626-0.604,1.061-0.621c0.649-0.02,1.189,0.491,1.208,1.141
			c0,0.021,0,0.044,0,0.066c0.001,0.221-0.063,0.437-0.183,0.622c-2.452,4.244-7.318,6.33-12.075,6.33
			c-8.16,0-14.014-7.318-14.014-15.111c0-7.794,5.817-15.112,14.014-15.112S402.891,395.671,402.928,403.464z M400.329,402.33
			c-0.513-6.001-5.122-11.489-11.489-11.489c-6.366,0-10.867,5.488-11.489,11.489H400.329z"/>
		<path fill="#FFFFFF" d="M442.151,390.438v26.564c-0.019,0.658-0.548,1.188-1.207,1.207c-0.648,0.019-1.188-0.492-1.208-1.141
			c0-0.022,0-0.044,0-0.066v-5.05c-2.012,3.988-5.562,6.879-10.099,6.879c-7.208,0-11.196-6.257-11.196-12.88v-15.55
			c0.006-0.665,0.543-1.202,1.207-1.208c0.659,0.02,1.188,0.549,1.208,1.208v15.55c0,5.232,2.964,10.429,8.781,10.429
			c8.16,0,10.099-7.647,10.099-16.1v-9.916c0.01-0.677,0.566-1.218,1.243-1.209c0.138,0.002,0.274,0.027,0.404,0.075
			C441.853,389.449,442.152,389.921,442.151,390.438z"/>
		<path fill="#FFFFFF" d="M503.587,401.27v15.55c-0.02,0.659-0.549,1.188-1.208,1.208c-0.648,0.019-1.189-0.492-1.207-1.141
			c-0.001-0.022-0.001-0.045,0-0.067v-15.55c0-5.232-2.964-10.355-8.782-10.355c-7.318,0-10.099,7.83-10.099,13.904v12.001
			c-0.02,0.659-0.549,1.188-1.207,1.208c-0.649,0.019-1.189-0.492-1.208-1.141c0-0.022,0-0.045,0-0.067v-15.55
			c0-5.232-2.964-10.355-8.781-10.355c-7.392,0-10.429,5.818-10.172,13.574c0,0.184,0.073,0.513,0,0.623v11.672
			c-0.002,0.639-0.467,1.182-1.099,1.28c-0.654,0.087-1.256-0.373-1.344-1.028c-0.007-0.06-0.011-0.119-0.01-0.179v-26.527
			c0.001-0.639,0.467-1.182,1.098-1.281c0.655-0.087,1.257,0.374,1.344,1.028c0.008,0.06,0.012,0.119,0.011,0.18v4.427
			c2.085-3.731,5.817-6.184,10.172-6.184c4.939,0,8.781,3.147,10.354,7.721c2.013-4.537,5.928-7.721,10.94-7.721
			C499.525,388.499,503.587,394.683,503.587,401.27L503.587,401.27z"/>
		<path opacity="0.6" fill="#FFFFFF" enable-background="new    " d="M138.783,383.12l-30.37,13.795l30.37,17.966l30.406-17.966
			L138.783,383.12z"/>
		<path opacity="0.45" fill="#FFFFFF" enable-background="new    " d="M108.413,396.915l30.37,17.966v-68.387L108.413,396.915z"/>
		<path opacity="0.8" fill="#FFFFFF" enable-background="new    " d="M138.783,346.494v68.387l30.406-17.966L138.783,346.494z"/>
		<path opacity="0.45" fill="#FFFFFF" enable-background="new    " d="M108.413,402.696l30.37,42.81v-24.881L108.413,402.696z"/>
		<path opacity="0.8" fill="#FFFFFF" enable-background="new    " d="M138.783,420.625v24.881l30.406-42.81L138.783,420.625z"/>
	</g>
</g>
</svg>
