<?xml version="1.0" encoding="utf-8"?>
<!-- Generator: Adobe Illustrator 16.0.0, SVG Export Plug-In . SVG Version: 6.00 Build 0)  -->
<!DOCTYPE svg PUBLIC "-//W3C//DTD SVG 1.1//EN" "http://www.w3.org/Graphics/SVG/1.1/DTD/svg11.dtd">
<svg version="1.1" id="Layer_1" xmlns="http://www.w3.org/2000/svg" xmlns:xlink="http://www.w3.org/1999/xlink" x="0px" y="0px"
	 width="87px" height="34px" viewBox="0 0 87 34" enable-background="new 0 0 87 34" xml:space="preserve">
<path fill="#F7A600" d="M62.008,25.357V3h4.494v22.357H62.008z"/>
<path fill="#FFFFFF" d="M9.634,31.998H0V9.641h9.247c4.494,0,7.112,2.449,7.112,6.28c0,2.48-1.682,4.083-2.846,4.616
	c1.39,0.628,3.168,2.041,3.168,5.025C16.681,29.737,13.741,31.998,9.634,31.998z M8.891,13.536H4.494v5.15h4.397
	c1.907,0,2.974-1.037,2.974-2.576C11.865,14.572,10.798,13.536,8.891,13.536z M9.182,22.61H4.494v5.495h4.688
	c2.037,0,3.006-1.256,3.006-2.764C12.188,23.835,11.217,22.61,9.182,22.61z"/>
<path fill="#FFFFFF" d="M30.388,22.829v9.169h-4.462v-9.169L19.007,9.641h4.881l4.3,9.011l4.235-9.011h4.881L30.388,22.829z"/>
<path fill="#FFFFFF" d="M50.046,31.998h-9.634V9.641h9.247c4.494,0,7.112,2.449,7.112,6.28c0,2.48-1.682,4.083-2.846,4.616
	c1.39,0.628,3.168,2.041,3.168,5.025C57.093,29.737,54.152,31.998,50.046,31.998z M49.303,13.536h-4.397v5.15h4.397
	c1.906,0,2.975-1.037,2.975-2.576C52.277,14.572,51.209,13.536,49.303,13.536z M49.594,22.61h-4.688v5.495h4.688
	c2.037,0,3.006-1.256,3.006-2.764C52.6,23.835,51.631,22.61,49.594,22.61z"/>
<path fill="#FFFFFF" d="M80.986,13.536V32h-4.494V13.536h-6.014V9.641H87v3.895H80.986z"/>
</svg>
