<?xml version="1.0" encoding="UTF-8"?><svg id="Layer_1" xmlns="http://www.w3.org/2000/svg" viewBox="0 0 595.28 113.39"><defs><style>.cls-1{fill:#fff;}</style></defs><path class="cls-1" d="m112.08,78.52h-18.29c4.65-6.05,7.44-13.6,7.44-21.82s-2.8-15.8-7.46-21.85h18.3c3.1,6.63,4.84,14.04,4.84,21.85s-1.74,15.2-4.83,21.82Zm-46.54,0c-12.02,0-21.77-9.78-21.77-21.83s9.75-21.84,21.77-21.84,21.77,9.78,21.77,21.84-9.74,21.83-21.77,21.83Zm-35.7-21.82c0,19.78,15.98,35.81,35.7,35.81,5.29,0,10.29-1.19,14.81-3.26v16.8c-4.69,1.41-9.65,2.18-14.8,2.18-28.37,0-51.37-23.07-51.37-51.53S37.17,5.16,65.54,5.16c5.15,0,10.11.77,14.8,2.18v16.8c-4.52-2.07-9.52-3.26-14.81-3.26-19.71,0-35.7,16.03-35.7,35.81Z"/><path class="cls-1" d="m167.6,68.53c4.27,0,7.74-1.73,9.82-3.98v12.53c-3,1.39-6.53,2.08-10.05,2.08-12.7,0-22.93-10.11-22.93-22.46s10.22-22.46,22.93-22.46c3.52,0,7.05.75,10.05,2.08v12.53c-2.08-2.25-5.54-3.98-9.82-3.98-6.87,0-11.84,5.02-11.84,11.84s4.97,11.84,11.84,11.84Zm38.51-34.3c12.53,0,22.52,10.11,22.52,22.46s-9.99,22.46-22.52,22.46-22.52-10.11-22.52-22.46,10.05-22.46,22.52-22.46Zm0,10.51c-6.18,0-11.2,4.91-11.2,11.95s5.02,11.95,11.2,11.95,11.2-4.91,11.2-11.95-5.02-11.95-11.2-11.95Zm40.77-9.82l18.48,25.41v-25.41h10.86v43.54h-9.64l-19.11-25.81v25.81h-10.86v-43.54h10.28Zm60.46,33.61c4.27,0,7.74-1.73,9.82-3.98v12.53c-3,1.39-6.53,2.08-10.05,2.08-12.7,0-22.93-10.11-22.93-22.46s10.22-22.46,22.93-22.46c3.52,0,7.05.75,10.05,2.08v12.53c-2.08-2.25-5.54-3.98-9.82-3.98-6.87,0-11.84,5.02-11.84,11.84s4.97,11.84,11.84,11.84Zm38.51-34.3c12.53,0,22.52,10.11,22.52,22.46s-9.99,22.46-22.52,22.46-22.52-10.11-22.52-22.46,10.05-22.46,22.52-22.46Zm0,10.51c-6.18,0-11.2,4.91-11.2,11.95s5.02,11.95,11.2,11.95,11.2-4.91,11.2-11.95-5.02-11.95-11.2-11.95Zm41.69,18.13v15.59h-11.2v-43.54h14.38c10.34,0,17.44,5.08,17.44,13.98,0,5.83-3.52,10.11-8.95,12.3l13.86,17.27h-13.63l-11.9-15.59Zm0-8.43h3.12c3.75,0,6.01-2.02,6.01-5.2s-2.25-5.14-6.01-5.14h-3.12v10.34Zm46.31-19.52c12.47,0,22.52,9.35,22.52,21.77s-10.05,21.77-22.52,21.77h-15.76v-43.54h15.76Zm-.75,9.3h-3.7v24.95h3.58c7.33,0,12.07-5.77,12.07-12.47s-4.74-12.47-11.95-12.47Zm42.56,34.24h-11.32v-43.54h11.32v43.54Zm34.88-17.5v-26.04h11.32v25.99c0,11.61-7.91,18.25-18.31,18.25s-18.31-6.64-18.31-18.25v-25.99h11.32v26.04c0,5.49,2.77,8.2,6.99,8.2s6.99-2.71,6.99-8.2Z"/><polygon class="cls-1" points="542.51 49.36 542.18 49.36 542.18 78.46 531.76 78.46 531.76 34.92 548.37 34.92 556.6 59.64 565.69 34.92 581.1 34.92 581.1 78.46 570.67 78.46 570.67 49.36 570.35 49.36 559.84 78.46 553.01 78.46 542.51 49.36"/></svg>