<?xml version="1.0" encoding="utf-8"?>
<!-- Generator: Adobe Illustrator 16.0.0, SVG Export Plug-In . SVG Version: 6.00 Build 0)  -->
<!DOCTYPE svg PUBLIC "-//W3C//DTD SVG 1.1//EN" "http://www.w3.org/Graphics/SVG/1.1/DTD/svg11.dtd">
<svg version="1.1" id="Layer_1" xmlns="http://www.w3.org/2000/svg" xmlns:xlink="http://www.w3.org/1999/xlink" x="0px" y="0px"
	 width="494.031px" height="113.556px" viewBox="0 0 494.031 113.556" enable-background="new 0 0 494.031 113.556"
	 xml:space="preserve">
<g>
	<path fill-rule="evenodd" clip-rule="evenodd" fill="#262324" d="M26.795,25.216c0,6.202-0.131,11.248,0.045,16.283
		c0.119,3.411-1.346,4.833-4.628,4.751c-2.249-0.057-4.503,0.052-6.747-0.069c-2.88-0.154-4.422-2.084-3.371-4.547
		c4.227-9.905,1.755-20.234,2.306-30.353c0.323-5.948,0.89-6.756,6.817-6.141c4.818,0.499,8.835,2.652,11.817,6.476
		C45.936,28.153,58.792,44.726,71.66,61.289c5.59,7.195,11.236,14.348,16.707,21.633c1.321,1.758,2.487,2.047,4.361,1.145
		c1.695-0.817,3.931-0.75,3.544-3.758c-0.332-2.582-0.047-5.241-0.076-7.865c-0.027-2.448,1.173-3.765,3.589-3.843
		c2.496-0.082,5.002-0.136,7.493-0.008c2.926,0.151,4.12,2.002,3.222,4.615c-3.193,9.286-1.498,18.818-1.499,28.229
		c-0.001,8.137-0.433,8.835-8.559,7.771c-6.991-0.916-12.237-4.459-16.476-9.981c-18.164-23.667-36.413-47.268-54.635-70.89
		C28.753,27.588,28.139,26.867,26.795,25.216z"/>
	<path fill-rule="evenodd" clip-rule="evenodd" fill="#262324" d="M167.464,61.221c0-8.334,0.009-16.668-0.005-25.001
		c-0.005-3.004,1.424-4.948,4.251-5.855c2.725-0.874,4.865,0.079,6.628,2.201c0.963,1.158,0.951,2.502,0.951,3.885
		c-0.009,14.238-0.029,28.477,0.018,42.714c0.01,3.001-0.688,5.735-3.781,6.558c-3.309,0.88-6.528,0.215-8.461-3.113
		c-4.511-7.766-8.966-15.564-13.45-23.346c-0.925-1.605-1.881-3.193-2.825-4.793c-1.573,0.505-0.92,1.716-0.929,2.535
		c-0.068,7.368-0.034,14.737-0.063,22.106c-0.017,4.452-1.979,6.807-5.625,6.85c-3.976,0.047-6.104-2.27-6.107-6.771
		c-0.009-13.863,0.041-27.726,0.001-41.589c-0.009-3.345,0.431-6.311,4.246-7.344c3.375-0.913,6.738,0.59,8.753,4.059
		c4.636,7.981,9.182,16.016,13.77,24.026c0.604,1.053,1.24,2.088,1.86,3.132C166.953,61.391,167.208,61.306,167.464,61.221z"/>
	<path fill-rule="evenodd" clip-rule="evenodd" fill="#262324" d="M18.253,51.492c5.367,0,10.748-0.255,16.095,0.064
		c6.867,0.41,11.432,4.837,11.825,11.666c0.424,7.347,0.416,14.728,0.328,22.091c-0.076,6.385,1.793,11.735,7.786,14.567
		c6.265,2.96,12.506,2.231,17.9-2.215c2.237-1.844,3.399-1.284,4.767,0.703c0.848,1.231,1.812,2.385,2.748,3.553
		c3.259,4.062,3.228,4.271-1.17,6.874c-14.025,8.303-31.688,5.475-40.542-6.384c-3.484-4.667-4.372-9.956-4.375-15.551
		c-0.004-6.744-0.13-13.491,0.011-20.232c0.059-2.8-0.937-3.693-3.691-3.653c-8.866,0.13-17.737-0.059-26.603,0.113
		C0.621,63.142-0.022,62.235,0,59.686c0.071-8.391-0.018-8.393,8.511-8.405c3.247-0.005,6.495,0,9.742,0
		C18.253,51.351,18.253,51.421,18.253,51.492z"/>
	<path fill-rule="evenodd" clip-rule="evenodd" fill="#262324" d="M104.465,63.017c-4.37-0.004-8.74,0.003-13.11-0.006
		c-8.574-0.018-14.401-5.548-14.607-14.14c-0.165-6.863-0.199-13.739,0.004-20.6c0.184-6.209-1.322-11.482-7.209-14.449
		c-6.236-3.144-12.497-2.682-17.887,1.724c-3.217,2.63-4.93,1.979-7.19-0.971C39.67,8.32,39.798,7.356,46.924,3.804
		c12.553-6.258,26.378-4.705,35.537,4c4.675,4.443,7.021,9.94,7.098,16.347c0.094,7.739,0.123,15.482,0.006,23.221
		c-0.043,2.862,0.845,3.988,3.87,3.93c8.484-0.16,16.975,0.066,25.459-0.082c2.896-0.051,3.927,0.806,3.977,3.801
		c0.133,8.001,0.268,7.999-7.542,7.999C111.708,63.021,108.086,63.021,104.465,63.017z"/>
	<path fill-rule="evenodd" clip-rule="evenodd" fill="#262324" d="M293.563,81.355c-8.029,8.046-18.645,4.893-23.592,0.004
		c-6.848-6.765-7.467-19.757-1.207-27.528c5.916-7.345,15.29-8.161,24.884-1.718c0-6.289-0.058-12.198,0.02-18.105
		c0.057-4.376,2.184-6.601,6.022-6.405c3.167,0.159,5.325,1.741,5.342,5.057c0.081,16.115,0.063,32.23,0.021,48.345
		c-0.007,2.79-1.763,4.382-4.355,4.848C297.301,86.463,294.905,85.003,293.563,81.355z M276.203,66.858
		c-0.05,5.378,3.59,9.451,8.427,9.427c4.805-0.023,9.002-4.178,9.151-9.059c0.155-5.057-4.036-9.547-8.949-9.588
		C279.839,57.597,276.253,61.427,276.203,66.858z"/>
	<path fill-rule="evenodd" clip-rule="evenodd" fill="#262324" d="M464.901,81.389c-1.471,3.693-3.949,5.251-7.687,4.297
		c-3.742-0.955-4.032-3.883-4.025-7.063c0.035-14.865-0.009-29.729,0.027-44.593c0.011-4.477,2.351-6.765,6.347-6.432
		c3.196,0.266,4.968,2.234,5.014,5.814c0.067,5.246,0.019,10.492,0.035,15.738c0.005,1.707-0.059,3.052,2.385,1.508
		c11.237-7.096,24.072-1.175,26.618,12.157c2.456,12.863-6.234,23.896-18.427,23.476C471.08,86.15,467.818,84.313,464.901,81.389z
		 M464.591,67.102c-0.003,4.839,4.221,9.175,8.963,9.201c4.78,0.026,8.793-4.209,8.815-9.305c0.022-5.17-3.848-9.331-8.706-9.357
		C468.717,57.612,464.595,61.912,464.591,67.102z"/>
	<path fill-rule="evenodd" clip-rule="evenodd" fill="#262324" d="M374.084,51.882c7.417-5.165,13.836-5.623,19.322-1.744
		c4.044,2.859,5.5,7.113,5.752,11.666c0.352,6.352,0.252,12.734,0.163,19.101c-0.045,3.221-2.421,5.139-5.717,5.036
		c-3.313-0.104-5.388-2.059-5.447-5.34c-0.085-4.744,0.033-9.494-0.094-14.236c-0.134-5.044-2.827-7.984-7.032-7.947
		c-4.261,0.038-6.843,2.96-6.922,7.994c-0.071,4.495,0.034,8.993-0.054,13.488c-0.081,4.151-2.092,6.119-5.922,6.021
		c-3.441-0.088-5.47-2.244-5.481-6.177c-0.045-15.237-0.05-30.476,0.008-45.713c0.017-4.256,2.021-6.405,5.625-6.459
		c3.797-0.056,5.761,2.136,5.789,6.597C374.113,39.967,374.084,45.767,374.084,51.882z"/>
	<path fill-rule="evenodd" clip-rule="evenodd" fill="#262324" d="M341.797,52.523c1.185-3.73,3.679-5.271,7.197-4.546
		c3.579,0.738,4.391,3.425,4.336,6.811c-0.134,8.357-0.103,16.72-0.002,25.079c0.035,2.835-0.816,4.952-3.624,5.786
		c-2.737,0.813-5.201,0.306-6.923-2.24c-0.641-0.948-0.865-2.408-2.52-0.698c-6.578,6.799-21.845,4.072-26.06-7.664
		c-4.32-12.028,0.893-26.365,15.129-27.447C334.122,47.238,337.054,48.335,341.797,52.523z M324.303,66.969
		c-0.001,5.152,3.861,9.287,8.716,9.331c4.657,0.042,9.016-4.354,9.081-9.161c0.068-4.956-4.28-9.479-9.128-9.496
		C328.149,57.626,324.306,61.761,324.303,66.969z"/>
	<path fill-rule="evenodd" clip-rule="evenodd" fill="#262324" d="M206.805,86.258c-11.449-0.03-19.532-8.178-19.428-19.584
		c0.103-11.272,8.166-19.218,19.454-19.169c11.688,0.05,19.84,7.923,19.871,19.19C226.735,78.213,218.52,86.289,206.805,86.258z
		 M207.47,58.404c-4.573-0.269-8.45,3.246-8.659,7.849c-0.221,4.882,3.222,8.955,7.773,9.197c4.534,0.241,8.554-3.576,8.766-8.325
		C215.556,62.522,212.081,58.675,207.47,58.404z"/>
	<path fill-rule="evenodd" clip-rule="evenodd" fill="#262324" d="M443.812,67.369c0,4.121-0.072,8.243,0.025,12.362
		c0.069,2.961-0.828,5.176-3.911,5.958c-2.807,0.712-5.435,0.194-6.729-2.542c-1.271-2.686-2-0.526-2.801,0.077
		c-6.172,4.65-15.448,3.98-19.575-1.472c-1.798-2.375-2.588-5.132-2.63-8.04c-0.099-6.866-0.126-13.735-0.038-20.601
		c0.043-3.339,2.219-5.276,5.499-5.285c3.403-0.01,5.718,2.066,5.788,5.485c0.104,4.993-0.011,9.99,0.04,14.985
		c0.048,4.805,2.086,7.096,6.233,7.163c4.083,0.065,6.546-2.223,6.76-6.798c0.223-4.735,0.076-9.487,0.105-14.231
		c0.03-4.613,1.775-6.6,5.73-6.561c3.745,0.038,5.48,2.035,5.5,6.388C443.828,58.628,443.813,62.998,443.812,67.369z"/>
	<path fill-rule="evenodd" clip-rule="evenodd" fill="#262324" d="M245.693,55.001c2.813-5.745,6.546-8.402,12.36-7.244
		c2.732,0.544,4.086,2.046,4.085,4.888c0,2.816-1.351,4.418-4.018,5.024c-0.361,0.083-0.754,0.149-1.113,0.097
		c-8.676-1.28-11.135,3.74-11.506,12.15c-0.142,3.235-0.002,6.482-0.041,9.724c-0.051,4.179-1.947,6.284-5.625,6.322
		c-3.653,0.038-5.748-2.154-5.763-6.223c-0.028-8.353-0.003-16.707,0.034-25.059c0.021-4.739,1.668-6.763,5.465-6.855
		C243.273,47.734,245.072,49.663,245.693,55.001z"/>
	<path fill-rule="evenodd" clip-rule="evenodd" fill="#262324" d="M96.212,25.778c-0.002-5.994,0.064-11.988-0.037-17.979
		c-0.037-2.127,0.74-2.748,2.829-2.825c9.968-0.369,9.966-0.429,9.966,9.593c0,3.247,0,6.493,0,9.739
		c0,6.078-0.581,12.198,2.476,17.905c1.424,2.66,0.588,4.219-2.769,4.044c-3.238-0.168-6.494-0.118-9.736-0.013
		c-2.118,0.067-2.812-0.747-2.769-2.86C96.292,37.516,96.214,31.646,96.212,25.778z"/>
	<path fill-rule="evenodd" clip-rule="evenodd" fill="#262324" d="M26.859,88.797c0,5.733-0.067,11.468,0.032,17.199
		c0.042,2.409-0.85,3.199-3.283,3.245c-9.153,0.174-9.152,0.256-9.152-8.857c0-4.861-0.122-9.726,0.035-14.582
		c0.151-4.667-0.163-9.176-2.402-13.404c-1.384-2.616-0.637-3.978,2.48-3.892c3.113,0.086,6.236,0.124,9.346-0.019
		c2.36-0.108,2.998,0.922,2.96,3.111c-0.1,5.731-0.034,11.466-0.034,17.199C26.848,88.797,26.854,88.797,26.859,88.797z"/>
</g>
</svg>
