<?xml version="1.0" encoding="utf-8"?>
<!-- Generator: Adobe Illustrator 16.0.0, SVG Export Plug-In . SVG Version: 6.00 Build 0)  -->
<!DOCTYPE svg PUBLIC "-//W3C//DTD SVG 1.1//EN" "http://www.w3.org/Graphics/SVG/1.1/DTD/svg11.dtd">
<svg version="1.1" id="Layer_2" xmlns="http://www.w3.org/2000/svg" xmlns:xlink="http://www.w3.org/1999/xlink" x="0px" y="0px"
	 width="1000px" height="1000px" viewBox="0 0 1000 1000" enable-background="new 0 0 1000 1000" xml:space="preserve">
<path fill="#0C122A" d="M947,500c0,246.859-200.141,447-447,447C253.14,947,53,746.859,53,500C53,253.14,253.14,53,500,53
	C746.859,53,947,253.14,947,500z"/>
<path fill="#FFFFFF" d="M644.305,548.867"/>
<linearGradient id="SVGID_1_" gradientUnits="userSpaceOnUse" x1="286.8096" y1="126.9932" x2="708.9409" y2="858.1461">
	<stop  offset="0.1478" style="stop-color:#FCEC2A"/>
	<stop  offset="0.1743" style="stop-color:#F9E22F"/>
	<stop  offset="0.3303" style="stop-color:#E9AD4D"/>
	<stop  offset="0.4831" style="stop-color:#DB8166"/>
	<stop  offset="0.6296" style="stop-color:#D15F79"/>
	<stop  offset="0.7679" style="stop-color:#C94787"/>
	<stop  offset="0.8949" style="stop-color:#C5388F"/>
	<stop  offset="1" style="stop-color:#C33392"/>
</linearGradient>
<path fill="url(#SVGID_1_)" d="M936.391,482.912c-3.311-85.651-31.402-164.935-77.32-230.894
	c-63.494-83.452-160.432-138.012-269.307-142.142c6.607-0.501,13.262-0.83,19.961-0.96c39.35-0.744,77.334,5.124,113,16.581
	c-64.656-38.155-140.035-60.075-220.543-60.075c-40.141,0-79,5.469-115.9,15.656c13.537-2.064,27.396-3.137,41.51-3.137
	c150.199,0,272.061,121.296,273.016,271.271c4.99-14.621,8.771-29.881,11.195-45.686c5.52-35.947,3.527-71.313-4.799-104.512
	c55.77,57.474,84.92,139.459,71.828,224.72c-2.99,19.456-8.041,38.083-14.871,55.707c9.508-8.438,18.469-17.734,26.686-27.991
	c19.469-24.305,33.119-51.394,41.141-79.586c16.791,66.493,3.348,139.783-42.832,197.438c-34.279,42.79-80.91,69.831-130.703,80.169
	c10.094-125.599-106.643-271.084-106.643-271.084c51.865,0.896,83.16-25.93,83.16-25.93c-18.777,1.787-45.605-15.204-45.605-15.204
	c28.613-0.896,65.279-16.986,65.279-16.986c-136.365-27.277-99.48-44.932-175.263-67.064
	c-118.966-34.742-180.624,45.604-180.624,45.604c-45.602,2.682-50.076,27.717-50.076,27.717
	C553.857,398,480.811,665.549,407.525,695.668c-48.666,20-116.206-9.419-169.333-56.668
	c-67.073-59.652-108.777-139.587-109.727-223.009c17.377,53.898,52.087,102.667,102.445,137.116
	c14.419,9.862,29.471,18.09,44.931,24.757c-73.026-49.005-121.095-132.324-121.095-226.88c0-76.464,31.446-145.575,82.097-195.143
	C133.917,235.314,67.607,359.903,67.607,500.001c0,240.012,194.568,434.576,434.574,434.576c9.303,0,18.529-0.322,27.686-0.898
	c-219.2,1.181-399.484-153.022-404.836-348.501c-0.187-6.702-0.144-13.359,0.087-19.983
	c16.87,188.896,197.65,334.293,413.897,328.363c91.41-2.502,175.012-31.664,241.563-78.809
	c-47.088,24.99-100.248,39.539-156.717,40.607c-6.707,0.131-13.367,0.049-19.99-0.21
	C790.762,840.972,936.719,679.024,936.391,482.912z"/>
<linearGradient id="SVGID_2_" gradientUnits="userSpaceOnUse" x1="470.7588" y1="32.2485" x2="665.4956" y2="369.5426">
	<stop  offset="0.1478" style="stop-color:#FCEC2A"/>
	<stop  offset="0.1743" style="stop-color:#F9E22F"/>
	<stop  offset="0.3303" style="stop-color:#E9AD4D"/>
	<stop  offset="0.4831" style="stop-color:#DB8166"/>
	<stop  offset="0.6296" style="stop-color:#D15F79"/>
	<stop  offset="0.7679" style="stop-color:#C94787"/>
	<stop  offset="0.8949" style="stop-color:#C5388F"/>
	<stop  offset="1" style="stop-color:#C33392"/>
</linearGradient>
<path fill="url(#SVGID_2_)" d="M700.773,349.174c4.99-14.622,8.771-29.882,11.195-45.686c1.061-6.91,1.838-13.797,2.352-20.652
	c-17.182-71.028-60.006-132.038-118.127-172.687c-2.15-0.122-4.305-0.23-6.463-0.312c1.82-0.139,3.645-0.261,5.471-0.372
	c-29.188-20.237-62.191-35.349-97.719-44.043c-38.486,0.407-75.768,5.825-111.235,15.617c13.537-2.064,27.396-3.137,41.51-3.137
	C577.957,77.903,699.818,199.199,700.773,349.174z"/>
<linearGradient id="SVGID_3_" gradientUnits="userSpaceOnUse" x1="202.543" y1="499.4775" x2="461.6411" y2="948.2487">
	<stop  offset="0.1478" style="stop-color:#FCEC2A"/>
	<stop  offset="0.1743" style="stop-color:#F9E22F"/>
	<stop  offset="0.3303" style="stop-color:#E9AD4D"/>
	<stop  offset="0.4831" style="stop-color:#DB8166"/>
	<stop  offset="0.6296" style="stop-color:#D15F79"/>
	<stop  offset="0.7679" style="stop-color:#C94787"/>
	<stop  offset="0.8949" style="stop-color:#C5388F"/>
	<stop  offset="1" style="stop-color:#C33392"/>
</linearGradient>
<path fill="url(#SVGID_3_)" d="M146.491,531.838c-0.23,6.623-0.273,13.281-0.087,19.982
	c3.173,115.895,67.835,217.277,165.64,280.375c64.644,38.141,140.021,60.025,220.511,60.025c9.303,0,18.529-0.322,27.686-0.898
	C174.779,844.889,149.174,561.88,146.491,531.838z"/>
<linearGradient id="SVGID_4_" gradientUnits="userSpaceOnUse" x1="496.3564" y1="258.6104" x2="461.7373" y2="353.7258">
	<stop  offset="0.1478" style="stop-color:#FCEC2A"/>
	<stop  offset="0.1743" style="stop-color:#F9E22F"/>
	<stop  offset="0.3303" style="stop-color:#E9AD4D"/>
	<stop  offset="0.4831" style="stop-color:#DB8166"/>
	<stop  offset="0.6296" style="stop-color:#D15F79"/>
	<stop  offset="0.7679" style="stop-color:#C94787"/>
	<stop  offset="0.8949" style="stop-color:#C5388F"/>
	<stop  offset="1" style="stop-color:#C33392"/>
</linearGradient>
<path fill="url(#SVGID_4_)" d="M470.705,262.203c73.955,21.598,40.613,38.935,165.703,65.109
	c10.963-3.714,18.561-7.044,18.561-7.044c-136.367-27.277-99.482-44.932-175.264-67.064
	c-104.375-30.481-164.632,27.622-177.843,42.333C324.961,274.511,381.842,236.252,470.705,262.203z"/>
<linearGradient id="SVGID_5_" gradientUnits="userSpaceOnUse" x1="295.3262" y1="305.4487" x2="506.4976" y2="671.2083">
	<stop  offset="0.1478" style="stop-color:#FCEC2A"/>
	<stop  offset="0.1743" style="stop-color:#F9E22F"/>
	<stop  offset="0.3303" style="stop-color:#E9AD4D"/>
	<stop  offset="0.4831" style="stop-color:#DB8166"/>
	<stop  offset="0.6296" style="stop-color:#D15F79"/>
	<stop  offset="0.7679" style="stop-color:#C94787"/>
	<stop  offset="0.8949" style="stop-color:#C5388F"/>
	<stop  offset="1" style="stop-color:#C33392"/>
</linearGradient>
<path fill="url(#SVGID_5_)" d="M415.525,696.668c-3.041,1.248-6.154,2.305-9.334,3.177c32.769,2.197,62.614-3.732,84.764-20.428
	c67.478-50.854,73.216-336.65-233.984-351.823C561.809,399.173,488.787,666.559,415.525,696.668z"/>
<linearGradient id="SVGID_6_" gradientUnits="userSpaceOnUse" x1="294.8618" y1="151.8892" x2="294.8618" y2="933.5776">
	<stop  offset="0.1478" style="stop-color:#FCEC2A"/>
	<stop  offset="0.1743" style="stop-color:#F9E22F"/>
	<stop  offset="0.3303" style="stop-color:#E9AD4D"/>
	<stop  offset="0.4831" style="stop-color:#DB8166"/>
	<stop  offset="0.6296" style="stop-color:#D15F79"/>
	<stop  offset="0.7679" style="stop-color:#C94787"/>
	<stop  offset="0.8949" style="stop-color:#C5388F"/>
	<stop  offset="1" style="stop-color:#C33392"/>
</linearGradient>
<path fill="url(#SVGID_6_)" d="M86.729,499.001c0.05-213.101,141.854-334.197,155.05-347.112
	C138.853,231.362,74.725,358.903,74.725,499.001c0,240.012,194.568,434.576,434.574,434.576c1.904,0,3.803-0.022,5.701-0.049
	C277.9,930.156,86.672,736.908,86.729,499.001z"/>
<linearGradient id="SVGID_7_" gradientUnits="userSpaceOnUse" x1="3632.4766" y1="-2608.7871" x2="3967.9463" y2="-2027.7365" gradientTransform="matrix(0.8207 0.5714 -0.5714 0.8207 -3764.0386 256.7959)">
	<stop  offset="0.1478" style="stop-color:#FCEC2A"/>
	<stop  offset="0.1743" style="stop-color:#F9E22F"/>
	<stop  offset="0.3303" style="stop-color:#E9AD4D"/>
	<stop  offset="0.4831" style="stop-color:#DB8166"/>
	<stop  offset="0.6296" style="stop-color:#D15F79"/>
	<stop  offset="0.7679" style="stop-color:#C94787"/>
	<stop  offset="0.8949" style="stop-color:#C5388F"/>
	<stop  offset="1" style="stop-color:#C33392"/>
</linearGradient>
<path fill="url(#SVGID_7_)" d="M945.928,472.696c-4.232-100.313-50.551-196.222-133.842-259.038
	c-1.602-1.174-16.533-12.097-22.002-15.319c83.291,62.815,129.611,158.725,133.842,259.037
	c-0.008,76.952-21.313,154.619-65.574,223.732C751.309,835.386,548.016,882.779,393.41,791.664
	c5.062,3.826,10.25,7.535,15.591,11.102c2.374,1.588,4.764,3.133,7.163,4.65c154.512,90.521,357.321,43.04,464.19-110.988
	C924.615,627.316,945.92,549.648,945.928,472.696z"/>
</svg>
